<?xml version="1.0" standalone="no"?>
<!DOCTYPE svg PUBLIC "-//W3C//DTD SVG 20010904//EN"
 "http://www.w3.org/TR/2001/REC-SVG-20010904/DTD/svg10.dtd">
<svg version="1.0" xmlns="http://www.w3.org/2000/svg"
 width="632.000000pt" height="632.000000pt" viewBox="0 0 632.000000 632.000000"
 preserveAspectRatio="xMidYMid meet">
<metadata>
Created by potrace 1.14, written by Peter Selinger 2001-2017
</metadata>
<g transform="translate(0.000000,632.000000) scale(0.100000,-0.100000)"
fill="#000000" stroke="none">
<path d="M2970 5966 l0 -353 -121 -12 c-67 -7 -127 -15 -135 -18 -12 -4 -14
23 -14 161 l0 166 -70 0 -70 0 -2 -176 -3 -176 -121 -34 c-713 -194 -1300
-683 -1620 -1349 -86 -179 -146 -358 -199 -589 -4 -21 -9 -26 -15 -17 -12 21
-49 7 -134 -50 -207 -138 -306 -388 -247 -621 51 -198 184 -351 372 -428 l55
-22 28 -92 c119 -394 332 -751 626 -1046 136 -138 243 -226 390 -325 349 -232
765 -378 1190 -416 159 -14 417 -7 570 16 555 83 1061 341 1450 741 295 303
491 636 613 1044 l35 115 78 40 c104 53 216 162 266 260 54 104 71 175 71 285
0 163 -61 298 -189 419 -64 61 -186 137 -203 127 -4 -3 -19 46 -35 107 -84
332 -255 671 -480 950 -355 442 -868 759 -1422 879 l-104 23 0 168 0 167 -75
0 -75 0 0 -155 0 -156 -122 7 c-68 3 -129 7 -135 10 -10 3 -13 82 -13 354 l0
350 -70 0 -70 0 0 -354z m0 -786 l0 -310 70 0 70 0 0 310 0 310 58 0 c33 0 93
-3 135 -6 l77 -7 0 -303 0 -304 75 0 75 0 0 290 c0 178 4 290 10 290 33 0 299
-77 393 -114 319 -124 574 -287 811 -516 407 -394 648 -884 716 -1455 16 -132
14 -420 -5 -560 -73 -552 -312 -1029 -711 -1415 -390 -377 -884 -604 -1439
-661 -144 -14 -426 -7 -570 16 -592 92 -1133 402 -1500 859 -232 289 -406 653
-478 1001 -40 192 -51 298 -51 500 1 385 76 710 244 1050 127 259 265 450 466
647 257 253 528 424 869 549 106 39 256 80 267 73 5 -3 8 -128 8 -277 l-1
-272 70 -3 71 -3 0 295 0 294 42 7 c41 7 162 21 206 24 l22 1 0 -310z m2682
-1774 c82 -63 151 -188 164 -298 15 -126 -46 -279 -147 -372 -33 -31 -65 -56
-71 -56 -7 0 -8 16 -4 48 28 201 31 486 7 655 -4 31 -5 57 -1 57 4 0 27 -15
52 -34z m-5070 -18 c-14 -63 -6 -587 10 -675 8 -46 12 -83 8 -83 -17 0 -104
66 -136 103 -135 155 -150 385 -37 547 36 51 133 140 153 140 6 0 6 -14 2 -32z"/>
<path d="M2005 3770 c-174 -26 -362 -128 -461 -249 l-28 -34 53 -48 53 -47 62
62 c92 90 226 156 348 171 129 16 303 -53 422 -165 l72 -69 54 50 55 49 -81
78 c-152 146 -375 229 -549 202z"/>
<path d="M4080 3773 c-174 -20 -346 -106 -464 -233 l-50 -53 55 -48 54 -47 70
66 c120 114 282 180 411 168 128 -13 266 -79 359 -173 l62 -61 56 46 55 46
-31 40 c-66 83 -208 176 -327 215 -55 18 -194 44 -210 39 -3 -1 -21 -3 -40 -5z"/>
<path d="M2541 1927 c-25 -21 -50 -43 -54 -47 -13 -11 81 -108 155 -160 90
-64 194 -106 307 -125 83 -15 99 -15 181 0 174 30 344 124 439 244 l29 37 -54
45 -53 45 -69 -66 c-83 -80 -187 -134 -302 -158 -75 -15 -85 -15 -162 0 -117
25 -214 75 -299 157 l-71 68 -47 -40z"/>
</g>
</svg>
