<svg width="40" height="40" viewBox="0 0 40 40" fill="none" xmlns="http://www.w3.org/2000/svg">
<path fill-rule="evenodd" clip-rule="evenodd" d="M13.8667 0H26.1333C37.3333 0 40 2.66667 40 13.8667V26.1333C40 37.3333 37.3333 40 26.1333 40H13.8667C2.66667 40 0 37.3333 0 26.1333V13.8667C0 2.66667 2.66667 0 13.8667 0Z" fill="#2787F5"/>
<path fill-rule="evenodd" clip-rule="evenodd" d="M32.7572 13.7801C32.9425 13.1621 32.7572 12.708 31.8752 12.708H28.9585C28.2169 12.708 27.875 13.1003 27.6896 13.5329C27.6896 13.5329 26.2063 17.1482 24.1052 19.4966C23.4254 20.1764 23.1163 20.3927 22.7455 20.3927C22.5602 20.3927 22.2918 20.1764 22.2918 19.5584V13.7801C22.2918 13.0385 22.0766 12.708 21.4585 12.708H16.8752C16.4117 12.708 16.133 13.0522 16.133 13.3784C16.133 14.0815 17.1836 14.2436 17.2918 16.2212V20.5163C17.2918 21.458 17.1218 21.6287 16.751 21.6287C15.7622 21.6287 13.357 17.9973 11.9305 13.8419C11.651 13.0343 11.3706 12.708 10.6252 12.708H7.7085C6.87517 12.708 6.7085 13.1003 6.7085 13.5329C6.7085 14.3054 7.69731 18.137 11.3126 23.2046C13.7227 26.6654 17.1185 28.5413 20.2085 28.5413C22.0625 28.5413 22.2918 28.1247 22.2918 27.407V24.7913C22.2918 23.958 22.4675 23.7917 23.0546 23.7917C23.4872 23.7917 24.2288 24.008 25.9592 25.6766C27.9368 27.6542 28.2628 28.5413 29.3752 28.5413H32.2918C33.1252 28.5413 33.5418 28.1247 33.3015 27.3024C33.0384 26.4829 32.0942 25.2939 30.8414 23.8844C30.1616 23.081 29.1419 22.2158 28.8329 21.7832C28.4003 21.227 28.5239 20.9798 28.8329 20.4854C28.8329 20.4854 32.3864 15.4796 32.7572 13.7801Z" fill="white"/>
</svg>
