<svg width="80" height="80" viewBox="0 0 80 80" fill="none" xmlns="http://www.w3.org/2000/svg">
<rect x="1" y="1" width="78" height="78" rx="19" stroke="white" stroke-width="2"/>
<path d="M37.1154 47.6337H30.3168V35.3962C30.3168 34.6455 29.7074 34.0366 28.9572 34.0366H15.3601C14.6094 34.0366 14 34.646 14 35.3962V57.1517C14 57.9024 14.6094 58.5113 15.3596 58.5113H25.8269C27.3686 59.5394 33.6427 63.7216 33.6427 63.7216C33.8684 63.8739 34.1321 63.9502 34.3957 63.9502C34.6158 63.9502 34.8363 63.8957 35.0374 63.7871C35.4779 63.5533 35.7554 63.0938 35.7554 62.5906V58.5112H37.115C37.8657 58.5112 38.4746 57.9018 38.4746 57.1516V48.9934C38.475 48.2432 37.8657 47.6338 37.1155 47.6338L37.1154 47.6337Z" fill="white"/>
<path d="M64.3098 15.0004H37.1155C36.3647 15.0004 35.7554 15.6098 35.7554 16.3605V40.8354C35.7554 41.5861 36.3648 42.195 37.115 42.195L43.914 42.1945V46.2739C43.914 46.777 44.1915 47.2366 44.632 47.4704C44.8331 47.579 45.0536 47.6335 45.2737 47.6335C45.5373 47.6335 45.801 47.5572 46.0267 47.4049L53.8425 42.1946H64.3098C65.0605 42.1946 65.6694 41.5852 65.6694 40.835V16.3601C65.6694 15.6094 65.06 15 64.3098 15L64.3098 15.0004ZM58.8708 34.0364H42.5542C41.8035 34.0364 41.1946 33.427 41.1946 32.6768C41.1946 31.9261 41.804 31.3172 42.5542 31.3172H58.8708C59.6215 31.3172 60.2304 31.9266 60.2304 32.6768C60.2304 33.4275 59.621 34.0364 58.8708 34.0364ZM58.8708 25.8783H42.5542C41.8035 25.8783 41.1941 25.2689 41.1941 24.5187C41.1941 23.768 41.8035 23.1591 42.5537 23.1591H58.8703C59.621 23.1591 60.2304 23.768 60.2304 24.5187C60.2304 25.2689 59.621 25.8783 58.8708 25.8783Z" fill="white"/>
</svg>
