<svg width="76" height="79" viewBox="0 0 76 79" fill="none" xmlns="http://www.w3.org/2000/svg">
<path d="M44.53 78.34C61.5514 78.34 75.35 64.5414 75.35 47.52C75.35 30.4986 61.5514 16.7 44.53 16.7C27.5085 16.7 13.71 30.4986 13.71 47.52C13.71 64.5414 27.5085 78.34 44.53 78.34Z" fill="#FFF868"/>
<path d="M37.0798 72C29.2528 71.9829 21.711 69.0599 15.9169 63.7976C10.1228 58.5353 6.48937 51.3089 5.72115 43.5196C4.95293 35.7304 7.10468 27.9334 11.7591 21.6406C16.4136 15.3479 23.2391 11.0078 30.912 9.46204C38.5849 7.91629 46.5584 9.275 53.2864 13.2747C60.0143 17.2744 65.0172 23.6301 67.3249 31.1092C69.6326 38.5883 69.0806 46.6579 65.776 53.7532C62.4714 60.8484 56.6497 66.4637 49.4398 69.51C45.5289 71.1616 41.3252 72.0084 37.0798 72ZM37.0798 10.36C29.685 10.3686 22.557 13.1237 17.0785 18.0906C11.6001 23.0576 8.16186 29.8824 7.43081 37.241C6.69975 44.5996 8.728 51.9675 13.1221 57.9152C17.5162 63.863 23.9628 67.9666 31.2114 69.43C38.46 70.8934 45.9938 69.6123 52.3512 65.8352C58.7087 62.0581 63.4365 56.0542 65.6176 48.9883C67.7987 41.9224 67.2776 34.2983 64.1553 27.5949C61.033 20.8916 55.5321 15.5869 48.7198 12.71C45.0394 11.1418 41.0804 10.3324 37.0798 10.33V10.36Z" fill="black"/>
<path d="M37.4299 0H35.5999V18.13H37.4299V0Z" fill="black"/>
<path d="M42.58 5.1H40.75V18.13H42.58V5.1Z" fill="black"/>
<path d="M32.2699 5.1H30.4399V18.13H32.2699V5.1Z" fill="black"/>
<path d="M29.9999 36.63C29.3421 35.7538 28.5012 35.0316 27.5358 34.5135C26.5704 33.9954 25.5037 33.6939 24.4099 33.63C23.3147 33.6938 22.2465 33.9952 21.2795 34.5132C20.3125 35.0313 19.4698 35.7536 18.8099 36.63L17.4299 35.43C18.2595 34.3491 19.3166 33.4637 20.5262 32.8364C21.7358 32.2091 23.0685 31.8553 24.4299 31.8C25.7913 31.856 27.1237 32.2101 28.3332 32.8373C29.5427 33.4645 30.5998 34.3496 31.4299 35.43L29.9999 36.63Z" fill="black"/>
<path d="M55.6799 36.63C55.02 35.7536 54.1773 35.0313 53.2103 34.5132C52.2432 33.9952 51.1751 33.6938 50.0799 33.63C48.9858 33.6925 47.9186 33.9935 46.953 34.5117C45.9874 35.0299 45.1468 35.7529 44.4899 36.63L43.0999 35.43C43.9299 34.3496 44.9871 33.4645 46.1966 32.8373C47.4061 32.2101 48.7385 31.856 50.0999 31.8C51.4613 31.8553 52.794 32.2091 54.0036 32.8364C55.2132 33.4637 56.2702 34.3491 57.0999 35.43L55.6799 36.63Z" fill="black"/>
<path d="M36.51 59.21C35.1476 59.1542 33.8142 58.7991 32.6044 58.17C31.3946 57.541 30.3382 56.6533 29.51 55.57L30.9 54.38C31.5579 55.2562 32.3987 55.9784 33.3641 56.4965C34.3295 57.0146 35.3962 57.3161 36.49 57.38C37.5852 57.3162 38.6534 57.0148 39.6204 56.4968C40.5875 55.9787 41.4302 55.2564 42.09 54.38L43.48 55.57C42.6541 56.6485 41.6022 57.5332 40.3982 58.162C39.1941 58.7908 37.867 59.1485 36.51 59.21Z" fill="black"/>
<path d="M6.75989 48.41C5.08203 47.9809 3.59909 46.9959 2.55302 45.6156C1.50694 44.2354 0.959457 42.5414 0.999892 40.81C1.08327 39.3416 1.59314 37.9295 2.46702 36.7465C3.34091 35.5636 4.54087 34.6612 5.91989 34.15L6.57989 35.86C5.53787 36.2409 4.62884 36.9161 3.96316 37.8037C3.29749 38.6913 2.9038 39.753 2.82989 40.86C2.80603 42.1745 3.22794 43.4584 4.02691 44.5025C4.82588 45.5466 5.95484 46.2894 7.22989 46.61L6.75989 48.41Z" fill="black"/>
<path d="M67.3199 48L66.8499 46.23C68.1239 45.9055 69.2508 45.1599 70.0477 44.1143C70.8446 43.0687 71.2647 41.7845 71.2399 40.47C71.1684 39.3623 70.7757 38.2994 70.1097 37.4114C69.4437 36.5234 68.5333 35.8487 67.4899 35.47L68.1499 33.76C69.5278 34.2712 70.7275 35.1719 71.6028 36.3526C72.4781 37.5333 72.9913 38.9429 73.0799 40.41C73.1144 42.1389 72.5645 43.8288 71.5192 45.2062C70.4738 46.5837 68.9942 47.5681 67.3199 48Z" fill="black"/>
</svg>
