<svg width="40" height="40" viewBox="0 0 40 40" fill="none" xmlns="http://www.w3.org/2000/svg">
<path fill-rule="evenodd" clip-rule="evenodd" d="M7.58045 19.3187C13.7545 16.9193 17.8717 15.3379 19.9316 14.5736C25.8129 12.3919 27.0354 12.0126 27.8317 12.0001C28.0071 11.9975 28.3984 12.036 28.6526 12.2196C28.8669 12.3745 28.9258 12.5842 28.9542 12.7311C28.9826 12.8781 29.0177 13.2132 28.9898 13.4746C28.6712 16.4614 27.2921 23.7097 26.5902 27.055C26.2933 28.4706 25.7087 28.9451 25.1428 28.9916C23.9128 29.0925 22.9792 28.2666 21.7877 27.5703C19.9235 26.4804 18.8705 25.8023 17.0614 24.7388C14.9702 23.5099 16.3261 22.8344 17.5176 21.7305C17.8293 21.4415 23.2486 17.0455 23.3532 16.6466C23.3663 16.5967 23.3786 16.4108 23.2545 16.3126C23.1304 16.2144 22.9479 16.248 22.8161 16.2748C22.6293 16.3126 19.6516 18.0682 13.8829 21.5412C13.0378 22.0588 12.272 22.3111 11.5862 22.2979C10.8301 22.2832 9.37557 21.9167 8.29418 21.6032C6.96795 21.2186 5.91367 21.0153 6.00559 20.3621C6.0526 20.0221 6.57784 19.6742 7.58045 19.3187Z" fill="url(#paint0_linear_171_50)"/>
<circle cx="20" cy="20" r="19" stroke="white" stroke-width="2"/>
<defs>
<linearGradient id="paint0_linear_171_50" x1="17.5" y1="12" x2="17.5" y2="29" gradientUnits="userSpaceOnUse">
<stop stop-color="white"/>
<stop offset="1" stop-color="white"/>
</linearGradient>
</defs>
</svg>
