<svg width="40" height="40" viewBox="0 0 40 40" fill="none" xmlns="http://www.w3.org/2000/svg">
<path d="M13.8667 1H26.1333C31.7503 1 34.8139 1.6948 36.5596 3.44044C38.3052 5.18608 39 8.24971 39 13.8667V26.1333C39 31.7503 38.3052 34.8139 36.5596 36.5596C34.8139 38.3052 31.7503 39 26.1333 39H13.8667C8.24971 39 5.18608 38.3052 3.44044 36.5596C1.6948 34.8139 1 31.7503 1 26.1333V13.8667C1 8.24971 1.6948 5.18608 3.44044 3.44044C5.18608 1.6948 8.24971 1 13.8667 1Z" stroke="#38405D" stroke-width="2"/>
<path fill-rule="evenodd" clip-rule="evenodd" d="M32.7572 13.7806C32.9425 13.1626 32.7572 12.7085 31.8752 12.7085H28.9585C28.2169 12.7085 27.875 13.1008 27.6896 13.5334C27.6896 13.5334 26.2063 17.1487 24.1052 19.4971C23.4254 20.1769 23.1163 20.3932 22.7455 20.3932C22.5602 20.3932 22.2918 20.1769 22.2918 19.5589V13.7806C22.2918 13.039 22.0766 12.7085 21.4585 12.7085H16.8752C16.4117 12.7085 16.133 13.0527 16.133 13.3789C16.133 14.0819 17.1836 14.2441 17.2918 16.2217V20.5168C17.2918 21.4585 17.1218 21.6292 16.751 21.6292C15.7622 21.6292 13.357 17.9978 11.9305 13.8424C11.651 13.0347 11.3706 12.7085 10.6252 12.7085H7.7085C6.87517 12.7085 6.7085 13.1008 6.7085 13.5334C6.7085 14.3059 7.69731 18.1375 11.3126 23.2051C13.7227 26.6658 17.1185 28.5418 20.2085 28.5418C22.0625 28.5418 22.2918 28.1252 22.2918 27.4075V24.7918C22.2918 23.9585 22.4675 23.7922 23.0546 23.7922C23.4872 23.7922 24.2288 24.0085 25.9592 25.6771C27.9368 27.6547 28.2628 28.5418 29.3752 28.5418H32.2918C33.1252 28.5418 33.5418 28.1252 33.3015 27.3029C33.0384 26.4834 32.0942 25.2944 30.8414 23.8849C30.1616 23.0815 29.1419 22.2163 28.8329 21.7836C28.4003 21.2275 28.5239 20.9803 28.8329 20.4859C28.8329 20.4859 32.3864 15.4801 32.7572 13.7806Z" fill="#38405D"/>
</svg>
