<svg width="40" height="40" viewBox="0 0 40 40" fill="none" xmlns="http://www.w3.org/2000/svg">
<path d="M13.8667 1H26.1333C31.7503 1 34.8139 1.6948 36.5596 3.44044C38.3052 5.18608 39 8.24971 39 13.8667V26.1333C39 31.7503 38.3052 34.8139 36.5596 36.5596C34.8139 38.3052 31.7503 39 26.1333 39H13.8667C8.24971 39 5.18608 38.3052 3.44044 36.5596C1.6948 34.8139 1 31.7503 1 26.1333V13.8667C1 8.24971 1.6948 5.18608 3.44044 3.44044C5.18608 1.6948 8.24971 1 13.8667 1Z" stroke="white" stroke-width="2"/>
<path fill-rule="evenodd" clip-rule="evenodd" d="M32.7572 13.7811C32.9425 13.1631 32.7572 12.709 31.8752 12.709H28.9585C28.2169 12.709 27.875 13.1013 27.6896 13.5339C27.6896 13.5339 26.2063 17.1492 24.1052 19.4976C23.4254 20.1774 23.1163 20.3936 22.7455 20.3936C22.5602 20.3936 22.2918 20.1774 22.2918 19.5594V13.7811C22.2918 13.0395 22.0766 12.709 21.4585 12.709H16.8752C16.4117 12.709 16.133 13.0532 16.133 13.3794C16.133 14.0824 17.1836 14.2446 17.2918 16.2222V20.5173C17.2918 21.459 17.1218 21.6297 16.751 21.6297C15.7622 21.6297 13.357 17.9982 11.9305 13.8429C11.651 13.0352 11.3706 12.709 10.6252 12.709H7.7085C6.87517 12.709 6.7085 13.1013 6.7085 13.5339C6.7085 14.3064 7.69731 18.138 11.3126 23.2056C13.7227 26.6663 17.1185 28.5423 20.2085 28.5423C22.0625 28.5423 22.2918 28.1257 22.2918 27.4079V24.7923C22.2918 23.959 22.4675 23.7927 23.0546 23.7927C23.4872 23.7927 24.2288 24.009 25.9592 25.6776C27.9368 27.6551 28.2628 28.5423 29.3752 28.5423H32.2918C33.1252 28.5423 33.5418 28.1257 33.3015 27.3034C33.0384 26.4839 32.0942 25.2948 30.8414 23.8854C30.1616 23.082 29.1419 22.2168 28.8329 21.7841C28.4003 21.228 28.5239 20.9807 28.8329 20.4864C28.8329 20.4864 32.3864 15.4806 32.7572 13.7811V13.7811Z" fill="white"/>
</svg>
