<svg width="40" height="40" viewBox="0 0 40 40" fill="none" xmlns="http://www.w3.org/2000/svg">
<path fill-rule="evenodd" clip-rule="evenodd" d="M15.0849 11.7898C14.7162 11.0387 14.3283 11.0237 13.9776 11.0105C13.6906 10.9993 13.3624 11 13.0346 11C12.7063 11 12.1732 11.1129 11.7224 11.5642C11.2713 12.0155 10 13.1065 10 15.3253C10 17.5444 11.7635 19.6885 12.0092 19.9897C12.2554 20.2903 15.4135 24.9894 20.4148 26.797C24.5717 28.2993 25.4176 28.0005 26.3198 27.9252C27.222 27.8501 29.2313 26.8346 29.6412 25.7814C30.0513 24.7285 30.0513 23.8258 29.9284 23.6373C29.8054 23.4494 29.4772 23.3365 28.9851 23.1111C28.4929 22.8856 26.0737 21.7944 25.6227 21.6439C25.1715 21.4936 24.8435 21.4185 24.5152 21.87C24.1872 22.321 23.2448 23.3365 22.9576 23.6373C22.6706 23.9387 22.3834 23.9763 21.8914 23.7508C21.3991 23.5245 19.8142 23.0487 17.9341 21.5125C16.4712 20.3171 15.4837 18.8409 15.1965 18.3893C14.9095 17.9383 15.1659 17.6941 15.4126 17.4692C15.6337 17.2671 15.9049 16.9426 16.151 16.6794C16.3965 16.416 16.4784 16.2281 16.6424 15.9273C16.8066 15.6262 16.7245 15.3629 16.6016 15.1373C16.4784 14.9117 15.5224 12.6816 15.0849 11.7898Z" fill="white"/>
<path d="M3.90104 29.5907L3.78983 29.995L1.42375 38.5949L10.3055 36.2765L10.6878 36.1767L11.0352 36.3652C13.7972 37.8647 16.9082 38.6557 20.0753 38.657C20.0754 38.657 20.0755 38.657 20.0757 38.657H20.0838C30.5117 38.657 38.9956 30.2075 39 19.8356L3.90104 29.5907ZM3.90104 29.5907L3.69075 29.2281M3.90104 29.5907L3.69075 29.2281M3.69075 29.2281C2.03664 26.3753 1.16614 23.1382 1.16729 19.8209M3.69075 29.2281L1.16729 19.8209M1.16729 19.8209C1.17165 9.44857 9.65326 1.00023 20.0833 1L1.16729 19.8209ZM33.4661 6.52143C29.8936 2.96235 25.1476 1.00224 20.0838 1L33.4661 6.52143ZM33.4661 6.52143C37.038 10.0805 39.0017 14.8056 39 19.8355L33.4661 6.52143Z" stroke="white" stroke-width="2"/>
</svg>
