<svg width="744" height="118" viewBox="0 0 744 118" fill="none" xmlns="http://www.w3.org/2000/svg">
<path d="M742.954 118C718.863 118 700.05 110.019 681.86 102.3C663.669 94.5799 646.647 87.3463 624.479 87.3463C602.311 87.3463 585.194 94.6173 567.098 102.3C549.002 109.982 530.094 118 505.985 118C481.875 118 463.081 110.019 444.89 102.3C426.7 94.5799 409.678 87.3463 387.509 87.3463C365.341 87.3463 348.225 94.6173 330.11 102.3C311.994 109.982 293.125 118 269.015 118C244.905 118 226.112 110.019 207.921 102.3C189.73 94.5799 172.708 87.3463 150.54 87.3463C128.372 87.3463 111.256 94.6173 93.1403 102.3C75.0249 109.982 56.1556 118 32.0458 118C21.1901 117.96 10.3971 116.367 0 113.272L2.65793 104.3C12.1904 107.151 22.0892 108.618 32.0458 108.655C54.214 108.655 71.3302 101.402 89.4267 93.7014C107.523 86.0005 126.43 78.0005 150.54 78.0005C174.65 78.0005 193.444 85.9818 211.634 93.7014C229.825 101.421 246.847 108.655 269.015 108.655C291.183 108.655 308.3 101.402 326.415 93.7014C344.53 86.0005 363.4 78.0005 387.509 78.0005C411.619 78.0005 430.413 85.9818 448.604 93.7014C466.795 101.421 483.817 108.655 505.985 108.655C528.153 108.655 545.269 101.402 563.384 93.7014C581.5 86.0005 600.369 78.0005 624.479 78.0005C648.589 78.0005 667.383 85.9818 685.573 93.7014C703.764 101.421 720.786 108.655 742.954 108.655C752.917 108.616 762.822 107.15 772.361 104.3L775 113.272C764.603 116.367 753.81 117.96 742.954 118Z" fill="#99CD50"/>
<path d="M742.954 66.0005C718.863 66.0005 700.05 58.0192 681.86 50.2996C663.669 42.5799 646.647 35.3463 624.479 35.3463C602.311 35.3463 585.194 42.6173 567.098 50.2996C549.002 57.9818 530.094 66.0005 505.985 66.0005C481.875 66.0005 463.081 58.0192 444.89 50.2996C426.7 42.5799 409.678 35.3463 387.509 35.3463C365.341 35.3463 348.225 42.6173 330.11 50.2996C311.994 57.9818 293.125 66.0005 269.015 66.0005C244.905 66.0005 226.112 58.0192 207.921 50.2996C189.73 42.5799 172.708 35.3463 150.54 35.3463C128.372 35.3463 111.256 42.6173 93.1403 50.2996C75.0249 57.9818 56.1556 66.0005 32.0458 66.0005C21.1901 65.9601 10.3971 64.3674 0 61.2715L2.65793 52.2996C12.1904 55.1508 22.0892 56.6178 32.0458 56.6547C54.214 56.6547 71.3302 49.4024 89.4267 41.7014C107.523 34.0005 126.43 26.0005 150.54 26.0005C174.65 26.0005 193.444 33.9818 211.634 41.7014C229.825 49.421 246.847 56.6547 269.015 56.6547C291.183 56.6547 308.3 49.4024 326.415 41.7014C344.53 34.0005 363.4 26.0005 387.509 26.0005C411.619 26.0005 430.413 33.9818 448.604 41.7014C466.795 49.421 483.817 56.6547 505.985 56.6547C528.153 56.6547 545.269 49.4024 563.384 41.7014C581.5 34.0005 600.369 26.0005 624.479 26.0005C648.589 26.0005 667.383 33.9818 685.573 41.7014C703.764 49.421 720.786 56.6547 742.954 56.6547C752.917 56.6164 762.822 55.1495 772.361 52.2996L775 61.2715C764.603 64.3674 753.81 65.9601 742.954 66.0005Z" fill="#99CD50"/>
<path d="M742.954 93.0005C718.863 93.0005 700.05 85.0192 681.86 77.2996C663.669 69.5799 646.647 62.3463 624.479 62.3463C602.311 62.3463 585.194 69.6173 567.098 77.2996C549.002 84.9818 530.094 93.0005 505.985 93.0005C481.875 93.0005 463.081 85.0192 444.89 77.2996C426.7 69.5799 409.678 62.3463 387.509 62.3463C365.341 62.3463 348.225 69.6173 330.11 77.2996C311.994 84.9818 293.125 93.0005 269.015 93.0005C244.905 93.0005 226.112 85.0192 207.921 77.2996C189.73 69.5799 172.708 62.3463 150.54 62.3463C128.372 62.3463 111.256 69.6173 93.1403 77.2996C75.0249 84.9818 56.1556 93.0005 32.0458 93.0005C21.1901 92.9601 10.3971 91.3674 0 88.2715L2.65793 79.2996C12.1904 82.1508 22.0892 83.6178 32.0458 83.6547C54.214 83.6547 71.3302 76.4024 89.4267 68.7014C107.523 61.0005 126.43 53.0005 150.54 53.0005C174.65 53.0005 193.444 60.9818 211.634 68.7014C229.825 76.421 246.847 83.6547 269.015 83.6547C291.183 83.6547 308.3 76.4024 326.415 68.7014C344.53 61.0005 363.4 53.0005 387.509 53.0005C411.619 53.0005 430.413 60.9818 448.604 68.7014C466.795 76.421 483.817 83.6547 505.985 83.6547C528.153 83.6547 545.269 76.4024 563.384 68.7014C581.5 61.0005 600.369 53.0005 624.479 53.0005C648.589 53.0005 667.383 60.9818 685.573 68.7014C703.764 76.421 720.786 83.6547 742.954 83.6547C752.917 83.6164 762.822 82.1495 772.361 79.2996L775 88.2715C764.603 91.3674 753.81 92.9601 742.954 93.0005Z" fill="#99CD50"/>
<path d="M742.954 40.0005C718.863 40.0005 700.05 32.0192 681.86 24.2996C663.669 16.5799 646.647 9.34628 624.479 9.34628C602.311 9.34628 585.194 16.6173 567.098 24.2996C549.002 31.9818 530.094 40.0005 505.985 40.0005C481.875 40.0005 463.081 32.0192 444.89 24.2996C426.7 16.5799 409.678 9.34628 387.509 9.34628C365.341 9.34628 348.225 16.6173 330.11 24.2996C311.994 31.9818 293.125 40.0005 269.015 40.0005C244.905 40.0005 226.112 32.0192 207.921 24.2996C189.73 16.5799 172.708 9.34628 150.54 9.34628C128.372 9.34628 111.256 16.6173 93.1403 24.2996C75.0249 31.9818 56.1556 40.0005 32.0458 40.0005C21.1901 39.9601 10.3971 38.3674 0 35.2715L2.65793 26.2996C12.1904 29.1508 22.0892 30.6178 32.0458 30.6547C54.214 30.6547 71.3302 23.4024 89.4267 15.7014C107.523 8.00049 126.43 0.000488281 150.54 0.000488281C174.65 0.000488281 193.444 7.9818 211.634 15.7014C229.825 23.421 246.847 30.6547 269.015 30.6547C291.183 30.6547 308.3 23.4024 326.415 15.7014C344.53 8.00049 363.4 0.000488281 387.509 0.000488281C411.619 0.000488281 430.413 7.9818 448.604 15.7014C466.795 23.421 483.817 30.6547 505.985 30.6547C528.153 30.6547 545.269 23.4024 563.384 15.7014C581.5 8.00049 600.369 0.000488281 624.479 0.000488281C648.589 0.000488281 667.383 7.9818 685.573 15.7014C703.764 23.421 720.786 30.6547 742.954 30.6547C752.917 30.6164 762.822 29.1495 772.361 26.2996L775 35.2715C764.603 38.3674 753.81 39.9601 742.954 40.0005Z" fill="#99CD50"/>
</svg>
